<svg width="80" height="80" viewBox="0 0 80 80" fill="none" xmlns="http://www.w3.org/2000/svg">
<path d="M70.6001 25.0291C70.0217 15.8385 65.981 3.78382 61.6807 2.95868C57.3804 2.13412 49.1663 11.8397 45.2297 20.1632L70.6001 25.0291Z" fill="url(#paint0_linear_1_2420)"/>
<path d="M9.39966 25.0291C9.97807 15.8385 14.0188 3.78382 18.3191 2.95868C22.6193 2.13412 30.8335 11.8397 34.77 20.1632L9.39966 25.0291Z" fill="url(#paint1_linear_1_2420)"/>
<path d="M76.4686 66.4561C75.3968 69.7735 71.5388 73.3092 68.2295 74.1104C49.4102 78.4235 30.5903 78.4235 11.7704 74.1104C8.46165 73.3097 4.60363 69.7729 3.53118 66.4561C-1.17641 51.1945 -1.17641 35.933 3.53118 20.6708C4.60305 17.354 8.46165 13.8177 11.7704 13.0165C30.5903 8.70398 49.4102 8.70398 68.2295 13.0165C71.5388 13.8189 75.3962 17.3528 76.4686 20.6708C81.1762 35.933 81.1762 51.1939 76.4686 66.4561Z" fill="url(#paint2_linear_1_2420)"/>
<path d="M68.3173 62.7939C68.0043 64.4657 66.3342 66.0311 64.6636 66.24C48.2219 68.2394 31.7797 68.2394 15.3374 66.24C13.6668 66.0311 11.9967 64.4663 11.6836 62.7939C9.34439 49.974 9.34439 37.1535 11.6836 24.3342C11.9961 22.6624 13.6668 21.0971 15.3374 20.8876C31.7797 18.8882 48.2219 18.8882 64.6636 20.8876C66.3342 21.0971 68.0049 22.6624 68.3173 24.3342C70.6566 37.1535 70.6566 49.974 68.3173 62.7939Z" fill="url(#paint3_linear_1_2420)"/>
<path d="M29.7929 38.7305C29.7929 39.2118 29.3989 39.6057 28.9171 39.6057H24.657C24.1752 39.6057 23.7812 39.2118 23.7812 38.7305V34.4704C23.7812 33.9892 24.1752 33.5947 24.657 33.5947H28.9171C29.3989 33.5947 29.7929 33.9892 29.7929 34.4704V38.7305Z" fill="white"/>
<path d="M56.2194 38.7305C56.2194 39.2118 55.8255 39.6057 55.3436 39.6057H51.0835C50.6017 39.6057 50.2078 39.2118 50.2078 38.7305V34.4704C50.2078 33.9892 50.6017 33.5947 51.0835 33.5947H55.3436C55.8255 33.5947 56.2194 33.9892 56.2194 34.4704V38.7305Z" fill="white"/>
<path d="M24.3433 43.7018C23.8615 43.7018 23.4675 44.0963 23.4675 44.5776V48.8377C23.4675 49.3189 23.8615 49.7134 24.3433 49.7134H28.6034C29.0852 49.7134 29.4792 49.3189 29.4792 48.8377V44.5776C29.4792 44.0963 29.0852 43.7018 28.6034 43.7018H24.3433Z" fill="white"/>
<path d="M51.395 43.7018C50.9132 43.7018 50.5193 44.0963 50.5193 44.5776V48.8377C50.5193 49.3189 50.9132 49.7134 51.395 49.7134H55.6552C56.137 49.7134 56.5309 49.3189 56.5309 48.8377V44.5776C56.5309 44.0963 56.137 43.7018 55.6552 43.7018H51.395Z" fill="white"/>
<path d="M30.3533 49.7129C29.8715 49.7129 29.4775 50.1075 29.4775 50.5887V54.8488C29.4775 55.33 29.8715 55.7246 30.3533 55.7246H49.6422C50.124 55.7246 50.518 55.33 50.518 54.8488V50.5887C50.518 50.1075 50.124 49.7129 49.6422 49.7129H30.3533Z" fill="white"/>
<mask id="mask0_1_2420" style="mask-type:luminance" maskUnits="userSpaceOnUse" x="9" y="19" width="62" height="49">
<path d="M68.3173 62.7939C68.0043 64.4657 66.3342 66.0311 64.6636 66.24C48.2219 68.2394 31.7797 68.2394 15.3374 66.24C13.6668 66.0311 11.9967 64.4663 11.6836 62.7939C9.34439 49.974 9.34439 37.1535 11.6836 24.3342C11.9961 22.6624 13.6668 21.0971 15.3374 20.8876C31.7797 18.8882 48.2219 18.8882 64.6636 20.8876C66.3342 21.0971 68.0049 22.6624 68.3173 24.3342C70.6566 37.1535 70.6566 49.974 68.3173 62.7939Z" fill="white"/>
</mask>
<g mask="url(#mask0_1_2420)">
</g>
<defs>
<linearGradient id="paint0_linear_1_2420" x1="61.3777" y1="4.53584" x2="58.4908" y2="19.593" gradientUnits="userSpaceOnUse">
<stop stop-color="#57E4FF"/>
<stop offset="1" stop-color="#0071ED"/>
</linearGradient>
<linearGradient id="paint1_linear_1_2420" x1="18.6225" y1="4.5358" x2="21.5094" y2="19.593" gradientUnits="userSpaceOnUse">
<stop stop-color="#57E4FF"/>
<stop offset="1" stop-color="#0071ED"/>
</linearGradient>
<linearGradient id="paint2_linear_1_2420" x1="39.9998" y1="-1.67146" x2="39.9998" y2="77.5871" gradientUnits="userSpaceOnUse">
<stop stop-color="#57E4FF"/>
<stop offset="1" stop-color="#0071ED"/>
</linearGradient>
<linearGradient id="paint3_linear_1_2420" x1="40.0004" y1="19.2366" x2="40.0004" y2="70.4908" gradientUnits="userSpaceOnUse">
<stop stop-color="#4D5F75"/>
<stop offset="1" stop-color="#090F14"/>
</linearGradient>
</defs>
</svg>
