<svg width="48" height="49" viewBox="0 0 48 49" fill="none" xmlns="http://www.w3.org/2000/svg">
<path d="M38.7864 9.15653H9.1497V36.0927H38.7864V9.15653Z" fill="white"/>
<path fill-rule="evenodd" clip-rule="evenodd" d="M47.9681 24.9225C47.9681 38.1598 37.2302 48.8906 23.984 48.8906C10.738 48.8906 0 38.1598 0 24.9225C0 11.6853 10.738 0.954407 23.984 0.954407C37.2302 0.954407 47.9681 11.6853 47.9681 24.9225ZM17.1876 34.4606H12.533C11.5549 34.4606 11.0718 34.4606 10.7772 34.2723C10.4591 34.0661 10.2646 33.7246 10.2411 33.3477C10.2234 33.0005 10.465 32.5764 10.9481 31.7285L22.4409 11.4842C22.93 10.6246 23.1774 10.1948 23.4897 10.0358C23.8255 9.86504 24.2262 9.86504 24.562 10.0358C24.8743 10.1948 25.1218 10.6246 25.6108 11.4842L27.9855 15.6269C28.5137 16.5491 28.7816 17.0168 28.8985 17.5077C29.0281 18.0435 29.0281 18.6087 28.8985 19.1446C28.7807 19.6391 28.5155 20.1102 27.9794 21.0464L21.9425 31.7109L21.9268 31.7382C21.3952 32.668 21.1257 33.1393 20.7523 33.4948C20.3457 33.8836 19.8567 34.166 19.3205 34.3253C18.8315 34.4606 18.2836 34.4606 17.1876 34.4606ZM28.9421 34.4606H35.6117C36.5956 34.4606 37.0906 34.4606 37.3854 34.2665C37.7035 34.0604 37.9037 33.7128 37.9216 33.3362C37.9385 33.0001 37.7022 32.5926 37.2391 31.794C37.2232 31.7668 37.2072 31.7391 37.1909 31.711L33.8501 25.9996L33.8121 25.9353C33.3426 25.142 33.1056 24.7413 32.8013 24.5865C32.4656 24.4157 32.0706 24.4157 31.7349 24.5865C31.4285 24.7455 31.1811 25.1635 30.692 26.0055L27.3631 31.7169L27.3517 31.7365C26.8644 32.5772 26.6208 32.9973 26.6384 33.342C26.6619 33.7189 26.8564 34.0661 27.1745 34.2723C27.4633 34.4606 27.9582 34.4606 28.9421 34.4606Z" fill="#E84142"/>
</svg>
