<svg width="16" height="17" viewBox="0 0 16 17" fill="none" xmlns="http://www.w3.org/2000/svg">
<path d="M8 8.95441C6.9 8.95441 5.95833 8.56274 5.175 7.77941C4.39167 6.99607 4 6.05441 4 4.95441C4 3.85441 4.39167 2.91274 5.175 2.12941C5.95833 1.34607 6.9 0.954407 8 0.954407C9.1 0.954407 10.0417 1.34607 10.825 2.12941C11.6083 2.91274 12 3.85441 12 4.95441C12 6.05441 11.6083 6.99607 10.825 7.77941C10.0417 8.56274 9.1 8.95441 8 8.95441ZM0 16.9544V14.1544C0 13.5877 0.145833 13.0669 0.4375 12.5919C0.729167 12.1169 1.11667 11.7544 1.6 11.5044C2.63333 10.9877 3.68333 10.6002 4.75 10.3419C5.81667 10.0836 6.9 9.95441 8 9.95441C9.1 9.95441 10.1833 10.0836 11.25 10.3419C12.3167 10.6002 13.3667 10.9877 14.4 11.5044C14.8833 11.7544 15.2708 12.1169 15.5625 12.5919C15.8542 13.0669 16 13.5877 16 14.1544V16.9544H0ZM2 14.9544H14V14.1544C14 13.9711 13.9542 13.8044 13.8625 13.6544C13.7708 13.5044 13.65 13.3877 13.5 13.3044C12.6 12.8544 11.6917 12.5169 10.775 12.2919C9.85833 12.0669 8.93333 11.9544 8 11.9544C7.06667 11.9544 6.14167 12.0669 5.225 12.2919C4.30833 12.5169 3.4 12.8544 2.5 13.3044C2.35 13.3877 2.22917 13.5044 2.1375 13.6544C2.04583 13.8044 2 13.9711 2 14.1544V14.9544ZM8 6.95441C8.55 6.95441 9.02083 6.75857 9.4125 6.36691C9.80417 5.97524 10 5.50441 10 4.95441C10 4.40441 9.80417 3.93357 9.4125 3.54191C9.02083 3.15024 8.55 2.95441 8 2.95441C7.45 2.95441 6.97917 3.15024 6.5875 3.54191C6.19583 3.93357 6 4.40441 6 4.95441C6 5.50441 6.19583 5.97524 6.5875 6.36691C6.97917 6.75857 7.45 6.95441 8 6.95441Z" fill="white"/>
</svg>
