<svg width="14" height="24" viewBox="0 0 14 24" fill="none" xmlns="http://www.w3.org/2000/svg">
<path d="M7.52 10.5333C4.49333 9.74667 3.52 8.93333 3.52 7.66667C3.52 6.21333 4.86667 5.2 7.12 5.2C9.49333 5.2 10.3733 6.33333 10.4533 8H13.4C13.3067 5.70667 11.9067 3.6 9.12 2.92V0H5.12V2.88C2.53333 3.44 0.453333 5.12 0.453333 7.69333C0.453333 10.7733 3 12.3067 6.72 13.2C10.0533 14 10.72 15.1733 10.72 16.4133C10.72 17.3333 10.0667 18.8 7.12 18.8C4.37333 18.8 3.29333 17.5733 3.14667 16H0.213333C0.373333 18.92 2.56 20.56 5.12 21.1067V24H9.12V21.1333C11.72 20.64 13.7867 19.1333 13.7867 16.4C13.7867 12.6133 10.5467 11.32 7.52 10.5333Z" fill="white"/>
</svg>
