<svg width="121" height="113" viewBox="0 0 121 113" fill="none" xmlns="http://www.w3.org/2000/svg">
<path d="M77.1387 12.4616C82.8154 5.16734 89.2166 -0.306341 93.2928 0.475241C97.2348 1.23163 101.033 8.22686 103.608 16.7153C100.583 16.1123 93.9277 14.755 91.5077 14.15C89.0876 13.545 80.92 12.7723 77.1387 12.4616Z" fill="#0461F0"/>
<path d="M27.7071 0.475241C23.8111 1.2228 20.056 8.06442 17.4827 16.4188L43.863 12.4639C38.1859 5.1685 31.7838 -0.306424 27.7071 0.475241Z" fill="#0461F0"/>
<path fill-rule="evenodd" clip-rule="evenodd" d="M103.198 108.092C108.203 106.88 114.039 101.533 115.66 96.5151C122.78 73.4311 122.78 50.3488 115.66 27.2648C114.038 22.2464 108.203 16.9013 103.198 15.6876C74.7332 9.16502 46.2677 9.16502 17.8022 15.6876C12.7977 16.8996 6.96147 22.2481 5.34026 27.2648C-1.78009 50.3488 -1.78009 73.432 5.34026 96.5151C6.96235 101.532 12.7977 106.881 17.8022 108.092C46.2677 114.616 74.7332 114.616 103.198 108.092ZM97.8043 96.1881C100.331 95.8722 102.857 93.5046 103.331 90.976C106.869 71.5859 106.869 52.1949 103.331 32.8057C102.858 30.2771 100.331 27.9096 97.8043 27.5927C72.9359 24.5686 48.0667 24.5686 23.1974 27.5927C20.6705 27.9096 18.1437 30.2771 17.671 32.8057C14.1329 52.1949 14.1329 71.5859 17.671 90.976C18.1445 93.5055 20.6705 95.8722 23.1974 96.1881C48.0667 99.2123 72.9359 99.2123 97.8043 96.1881Z" fill="#0461F0"/>
<path d="M34.5838 63.7071C33.2427 63.7071 32.0075 63.3894 30.8781 62.7542C29.7488 62.0837 28.8488 61.1837 28.1783 60.0544C27.543 58.925 27.2254 57.6898 27.2254 56.3488C27.2254 54.9724 27.543 53.7195 28.1783 52.5902C28.8488 51.4609 29.7488 50.5786 30.8781 49.9433C32.0075 49.2728 33.2427 48.9375 34.5838 48.9375C35.9602 48.9375 37.2131 49.2728 38.3424 49.9433C39.5071 50.5786 40.407 51.4609 41.0423 52.5902C41.7128 53.7195 42.0481 54.9724 42.0481 56.3488C42.0481 57.6898 41.7128 58.925 41.0423 60.0544C40.407 61.1837 39.5071 62.0837 38.3424 62.7542C37.2131 63.3894 35.9602 63.7071 34.5838 63.7071Z" fill="#0461F0"/>
<path d="M59.335 52.541H61.9362V53.5232C61.9362 54.4235 61.7563 55.2501 61.3963 56.0031C61.0364 56.7397 60.5047 57.3863 59.8013 57.9428C59.1142 58.4994 58.2635 58.9577 57.2492 59.3178C56.2349 59.6779 55.0652 59.9398 53.74 60.1035L52.6358 57.7709C53.8137 57.6564 54.8279 57.4681 55.6786 57.2062C56.5294 56.9443 57.2165 56.6251 57.74 56.2486C58.2798 55.8721 58.6806 55.4547 58.9424 54.9964C59.2042 54.5217 59.335 54.0306 59.335 53.5232V52.541ZM59.9731 52.541H62.5742V53.5232C62.5742 54.0306 62.6969 54.5217 62.9423 54.9964C63.2041 55.4547 63.6049 55.8721 64.1448 56.2486C64.6846 56.6251 65.3799 56.9443 66.2306 57.2062C67.0813 57.4681 68.0956 57.6564 69.2735 57.7709L68.1447 60.1035C66.8359 59.9398 65.6744 59.6779 64.6601 59.3178C63.6458 58.9577 62.7869 58.4994 62.0834 57.9428C61.3963 57.3863 60.8728 56.7397 60.5129 56.0031C60.153 55.2501 59.9731 54.4235 59.9731 53.5232V52.541Z" fill="#0461F0"/>
<path d="M87.2196 63.7071C85.8785 63.7071 84.6432 63.3894 83.5139 62.7542C82.3845 62.0837 81.4846 61.1837 80.814 60.0544C80.1788 58.925 79.8612 57.6898 79.8612 56.3488C79.8612 54.9724 80.1788 53.7195 80.814 52.5902C81.4846 51.4609 82.3845 50.5786 83.5139 49.9433C84.6432 49.2728 85.8785 48.9375 87.2196 48.9375C88.596 48.9375 89.8488 49.2728 90.9782 49.9433C92.1428 50.5786 93.0428 51.4609 93.678 52.5902C94.3486 53.7195 94.6839 54.9724 94.6839 56.3488C94.6839 57.6898 94.3486 58.925 93.678 60.0544C93.0428 61.1837 92.1428 62.0837 90.9782 62.7542C89.8488 63.3894 88.596 63.7071 87.2196 63.7071Z" fill="#0461F0"/>
</svg>
