<svg width="23" height="22" viewBox="0 0 23 22" fill="none" xmlns="http://www.w3.org/2000/svg">
<path d="M1.47058 11.3644V6.79445C1.47058 5.60445 2.20058 4.54441 3.31058 4.12441L11.2506 1.12441C12.4906 0.654406 13.8206 1.57444 13.8206 2.90444V6.70442M5.97058 10.9544H12.9706M17.0106 12.5044C16.5906 12.9144 16.3506 13.5044 16.4106 14.1344C16.5006 15.2144 17.4906 16.0044 18.5706 16.0044H20.4706V17.1944C20.4706 19.2644 18.7806 20.9544 16.7106 20.9544H5.23058C3.16058 20.9544 1.47058 19.2644 1.47058 17.1944V10.4644C1.47058 8.39442 3.16058 6.70441 5.23058 6.70441H16.7106C18.7806 6.70441 20.4706 8.39442 20.4706 10.4644V11.9044H18.4506C17.8906 11.9044 17.3806 12.1244 17.0106 12.5044ZM21.5294 12.9246V14.9846C21.5294 15.5346 21.0894 15.9846 20.5294 16.0046H18.5694C17.4894 16.0046 16.4994 15.2146 16.4094 14.1346C16.3494 13.5046 16.5894 12.9146 17.0094 12.5046C17.3794 12.1246 17.8894 11.9046 18.4494 11.9046H20.5294C21.0894 11.9246 21.5294 12.3746 21.5294 12.9246Z" stroke="#0461F0" stroke-width="1.5" stroke-linecap="round" stroke-linejoin="round"/>
</svg>
