<svg width="23" height="22" viewBox="0 0 23 22" fill="none" xmlns="http://www.w3.org/2000/svg">
<path d="M9 12.75C9 13.72 9.75001 14.5 10.67 14.5H12.55C13.35 14.5 14 13.82 14 12.97C14 12.06 13.6 11.73 13.01 11.52L10 10.47C9.41 10.26 9.01001 9.94 9.01001 9.02C9.01001 8.18 9.65999 7.49001 10.46 7.49001H12.34C13.26 7.49001 14.01 8.27001 14.01 9.24001M11.5 6.5V15.5M21.5 11C21.5 16.52 17.02 21 11.5 21C5.98 21 1.5 16.52 1.5 11C1.5 5.48 5.98 1 11.5 1M21.5 5V1M21.5 1H17.5M21.5 1L16.5 6" stroke="#0461F0" stroke-width="1.5" stroke-linecap="round" stroke-linejoin="round"/>
</svg>
